<svg xmlns="http://www.w3.org/2000/svg" viewBox="0 0 512 512" role="img" aria-label="LittleBowl">
  <rect width="512" height="512" rx="96" fill="#FFF8EB"/>
  <circle cx="256" cy="236" r="170" fill="#F6E7A8"/>
  <ellipse cx="256" cy="320" rx="145" ry="95" fill="#A8D18A"/>
  <ellipse cx="256" cy="300" rx="120" ry="55" fill="#F5F0E6"/>
  <circle cx="210" cy="290" r="22" fill="#F97316"/>
  <circle cx="256" cy="305" r="20" fill="#4CAF50"/>
  <ellipse cx="300" cy="285" rx="28" ry="16" fill="#F5E6C8"/>
  <circle cx="256" cy="160" r="58" fill="#F2D0A7"/>
  <path d="M210 145c12-28 36-40 46-40s34 12 46 40c-18-8-34-8-46-8s-28 0-46 8z" fill="#5B4636"/>
  <circle cx="238" cy="158" r="7" fill="#2F2A26"/>
  <circle cx="274" cy="158" r="7" fill="#2F2A26"/>
  <path d="M238 180c10 12 26 12 36 0" stroke="#2F2A26" stroke-width="6" fill="none" stroke-linecap="round"/>
  <path d="M330 210c18 30 28 58 30 86" stroke="#6B8F3C" stroke-width="14" fill="none" stroke-linecap="round"/>
  <ellipse cx="344" cy="200" rx="18" ry="12" fill="#6B8F3C"/>
  <text x="256" y="460" text-anchor="middle" font-family="Nunito, Arial, sans-serif" font-size="56" font-weight="800">
    <tspan fill="#6B8F3C">Little</tspan><tspan fill="#F97316">Bowl</tspan>
  </text>
</svg>
